<svg width="33" height="36" viewBox="0 0 33 36" fill="none" xmlns="http://www.w3.org/2000/svg">
<g clip-path="url(#clip0_2_13)">
<path fill-rule="evenodd" clip-rule="evenodd" d="M23.8548 31.7184C23.3387 32.2791 22.7877 32.7961 22.1993 33.2555C21.6316 33.6418 18.9727 34.1327 14.8061 34.1168C10.5593 34.1009 8.19009 33.5792 7.63023 33.3014C7.03086 32.8395 6.46924 32.3175 5.94431 31.7506C2.33221 32.0415 0 32.4994 0 33.0153C0 33.389 1.74237 33.7616 4.16101 34.0723L4.09293 34.1005L5.328 34.612C5.31142 34.6297 5.3026 34.6482 5.3026 34.6674C5.3026 35.1065 9.60861 35.83 14.9264 35.83C20.2442 35.83 24.5611 35.1065 24.5611 34.6674C24.5611 34.6496 24.5523 34.6326 24.5382 34.6164L25.6508 34.1555C28.2639 33.8165 30.214 33.4009 30.214 33.0153C30.214 32.4799 27.7022 32.0071 23.8548 31.7184ZM17.3196 14.892C19.0482 13.9952 19.322 12.4687 19.3848 11.3936C19.6212 7.33881 14.9775 6.07561 17.3196 0.000143786C17.3306 -0.0277104 12.7596 3.99667 15.1652 7.44625C18.3818 12.0592 17.2992 14.9028 17.3196 14.892ZM30.6282 20.6198C28.9736 20.0244 27.9894 21.6211 27.5657 19.5534C27.559 19.5212 27.529 19.5737 27.4835 19.6825C27.4892 19.6598 27.4962 19.6373 27.4962 19.6145C27.4962 18.5669 21.8641 17.7176 14.9169 17.7176C7.9696 17.7176 2.33786 18.5666 2.33786 19.6145C2.33786 19.6305 2.34315 19.6464 2.34562 19.6623C2.33715 19.6648 2.32798 19.6674 2.31951 19.6699C2.29835 20.0157 2.28741 20.3644 2.28741 20.7164C2.28741 25.8097 4.52755 30.2946 7.92445 32.9133C8.50724 33.2171 11.5408 33.6747 14.9267 33.6281C18.8634 33.5731 21.517 33.241 21.8662 32.8688C23.2022 31.8266 24.353 30.491 25.2596 28.9464C26.9833 27.0719 31.5161 28.1589 32.3811 24.0821C32.3914 24.0314 32.8662 21.4251 30.6282 20.6198ZM27.4465 19.7737C27.4387 19.7943 27.4295 19.8178 27.4214 19.8406C27.4211 19.8341 27.4211 19.8276 27.4207 19.8211C27.4317 19.8055 27.4377 19.7896 27.4465 19.7737ZM14.8664 21.5115C8.58379 21.5115 3.49109 20.8264 3.49109 19.9817C3.49109 19.137 8.58414 18.4519 14.8664 18.4519C21.1487 18.4519 26.2417 19.137 26.2417 19.9817C26.2417 20.8264 21.149 21.5115 14.8664 21.5115ZM31.1771 24.5708C30.2228 26.3817 28.4695 26.1324 26.1214 27.2632C26.1116 27.2679 27.3346 23.2302 27.3579 23.1578C27.7724 21.8548 29.2989 21.3042 30.232 21.6218C32.0269 22.2328 31.2794 24.3765 31.1771 24.5708ZM13.4327 14.7737C14.5549 14.1855 14.7324 13.1846 14.7729 12.4795C14.9264 9.82036 11.9122 8.99233 13.4327 5.00847C13.4398 4.99002 10.4726 7.62893 12.034 9.8909C14.122 12.9158 13.4193 14.7806 13.4327 14.7737Z" fill="white"/>
</g>
<defs>
<clipPath id="clip0_2_13">
<rect width="32.43" height="35.83" fill="white"/>
</clipPath>
</defs>
</svg>
