<svg width="116" height="104" viewBox="0 0 116 104" fill="none" xmlns="http://www.w3.org/2000/svg">
<g clip-path="url(#clip0_191_2)">
<path fill-rule="evenodd" clip-rule="evenodd" d="M70.2501 52.8591C69.4226 53.7581 68.539 54.587 67.5955 55.3236C66.6853 55.9431 62.4219 56.7302 55.7409 56.7047C48.9314 56.6792 45.1324 55.8428 44.2347 55.3973C43.2737 54.6566 42.3731 53.8196 41.5314 52.9107C35.7396 53.377 32 54.1114 32 54.9385C32 55.5377 34.7938 56.1351 38.672 56.6333L38.5628 56.6786L40.5432 57.4988C40.5166 57.5272 40.5025 57.5568 40.5025 57.5875C40.5025 58.2917 47.407 59.4518 55.9338 59.4518C64.4606 59.4518 71.3826 58.2917 71.3826 57.5875C71.3826 57.5591 71.3684 57.5318 71.3458 57.5057L73.1299 56.7668C77.3198 56.2233 80.4468 55.5568 80.4468 54.9385C80.4468 54.08 76.4192 53.3219 70.2501 52.8591ZM59.7712 25.8786C62.543 24.4407 62.9819 21.993 63.0826 20.2691C63.4616 13.7674 56.0158 11.742 59.7712 2.00024C59.7888 1.95558 52.4595 8.40849 56.3167 13.9397C61.4744 21.3364 59.7384 25.896 59.7712 25.8786ZM81.1108 35.0629C78.4579 34.1082 76.8797 36.6685 76.2003 33.353C76.1896 33.3014 76.1415 33.3855 76.0685 33.5601C76.0776 33.5235 76.0889 33.4875 76.0889 33.451C76.0889 31.7712 67.0581 30.4093 55.9185 30.4093C44.7789 30.4093 35.7486 31.7706 35.7486 33.451C35.7486 33.4765 35.7571 33.5021 35.7611 33.5276C35.7475 33.5316 35.7328 33.5357 35.7192 33.5398C35.6853 34.0943 35.6678 34.6534 35.6678 35.2178C35.6678 43.3847 39.2597 50.576 44.7065 54.7749C45.641 55.2621 50.5051 55.9959 55.9343 55.9211C62.2466 55.8329 66.5015 55.3004 67.0615 54.7036C69.2036 53.0325 71.0488 50.891 72.5026 48.4142C75.2664 45.4085 82.5346 47.1515 83.9216 40.6145C83.938 40.5333 84.6994 36.3541 81.1108 35.0629ZM76.0091 33.7062C75.9967 33.7393 75.982 33.777 75.969 33.8135C75.9684 33.8031 75.9684 33.7926 75.9678 33.7822C75.9854 33.7573 75.995 33.7317 76.0091 33.7062ZM55.8376 36.4927C45.7637 36.4927 37.5978 35.3941 37.5978 34.0397C37.5978 32.6854 45.7643 31.5868 55.8376 31.5868C65.9109 31.5868 74.0774 32.6854 74.0774 34.0397C74.0774 35.3941 65.9115 36.4927 55.8376 36.4927ZM81.991 41.3981C80.4609 44.3018 77.6496 43.9021 73.8845 45.7153C73.8687 45.7229 75.8298 39.2485 75.8672 39.1325C76.5318 37.0432 78.9794 36.1604 80.4756 36.6696C83.3537 37.6493 82.1551 41.0866 81.991 41.3981ZM53.5387 25.689C55.3381 24.7458 55.6226 23.1408 55.6877 22.0104C55.9338 17.7465 51.1007 16.4188 53.5387 10.0309C53.5501 10.0013 48.7923 14.2326 51.2959 17.8596C54.644 22.7099 53.5172 25.7 53.5387 25.689Z" fill="black"/>
</g>
<path d="M35.336 77.2C34.696 77.184 34.096 76.96 33.536 76.528C32.976 76.112 32.464 75.584 32 74.944C31.552 74.288 31.168 73.624 30.848 72.952C30.528 72.28 30.28 71.696 30.104 71.2C29.992 70.848 29.856 70.488 29.696 70.12C29.536 69.736 29.384 69.408 29.24 69.136C29.096 68.864 28.984 68.704 28.904 68.656C28.776 68.592 28.712 68.488 28.712 68.344C28.712 68.248 28.744 68.16 28.808 68.08C28.888 67.984 28.968 67.936 29.048 67.936C29.144 67.936 29.2 67.992 29.216 68.104C29.248 68.2 29.32 68.312 29.432 68.44C29.544 68.552 29.76 68.632 30.08 68.68C30.56 68.728 31.024 68.584 31.472 68.248C31.92 67.896 32.32 67.44 32.672 66.88C33.024 66.32 33.304 65.744 33.512 65.152C33.736 64.56 33.864 64.056 33.896 63.64C33.944 62.936 33.816 62.336 33.512 61.84C33.224 61.328 32.728 61.072 32.024 61.072C31.304 61.072 30.76 61.328 30.392 61.84C30.024 62.352 29.688 63 29.384 63.784C29.32 63.976 29.216 64.32 29.072 64.816C28.928 65.312 28.752 66.016 28.544 66.928C28.352 67.824 28.12 68.984 27.848 70.408C27.832 70.52 27.792 70.752 27.728 71.104C27.68 71.44 27.632 71.816 27.584 72.232C27.536 72.648 27.512 73.048 27.512 73.432C27.512 73.512 27.512 73.6 27.512 73.696C27.512 73.776 27.52 73.856 27.536 73.936C27.568 74.288 27.688 74.592 27.896 74.848C28.12 75.088 28.408 75.224 28.76 75.256C29.08 75.304 29.48 75.328 29.96 75.328C30.168 75.328 30.36 75.328 30.536 75.328C30.728 75.312 30.904 75.296 31.064 75.28C31.112 75.28 31.136 75.304 31.136 75.352C31.136 75.416 31.088 75.504 30.992 75.616C30.912 75.712 30.824 75.752 30.728 75.736C29.448 75.704 28.416 75.68 27.632 75.664C26.864 75.648 26.24 75.64 25.76 75.64C25.296 75.624 24.888 75.616 24.536 75.616C24.296 75.616 23.944 75.624 23.48 75.64C23.016 75.656 22.504 75.672 21.944 75.688C21.384 75.688 20.848 75.688 20.336 75.688H20.312C20.264 75.688 20.24 75.664 20.24 75.616C20.24 75.552 20.28 75.48 20.36 75.4C20.456 75.304 20.536 75.264 20.6 75.28C20.984 75.28 21.328 75.288 21.632 75.304C21.936 75.304 22.2 75.304 22.424 75.304C23 75.304 23.424 75.248 23.696 75.136C23.968 75.008 24.184 74.752 24.344 74.368C24.504 73.984 24.696 73.392 24.92 72.592C25.416 70.848 25.824 69.176 26.144 67.576C26.464 65.96 26.776 64.28 27.08 62.536C27.128 62.216 27.064 61.944 26.888 61.72C26.728 61.48 26.544 61.344 26.336 61.312C26.176 61.28 25.904 61.256 25.52 61.24C25.152 61.224 24.784 61.216 24.416 61.216C24.048 61.2 23.808 61.2 23.696 61.216C23.616 61.216 23.576 61.184 23.576 61.12C23.576 61.056 23.616 60.992 23.696 60.928C23.776 60.848 23.856 60.808 23.936 60.808C24.592 60.808 25.36 60.824 26.24 60.856C27.12 60.888 27.936 60.904 28.688 60.904H29.12C29.584 60.904 30.192 60.832 30.944 60.688C31.696 60.544 32.432 60.472 33.152 60.472C33.792 60.472 34.376 60.576 34.904 60.784C35.432 60.992 35.856 61.304 36.176 61.72C36.512 62.12 36.68 62.64 36.68 63.28C36.68 63.408 36.672 63.544 36.656 63.688C36.64 63.832 36.616 63.984 36.584 64.144C36.456 64.784 36.16 65.408 35.696 66.016C35.232 66.608 34.672 67.136 34.016 67.6C33.376 68.048 32.704 68.392 32 68.632C31.552 68.776 31.168 68.88 30.848 68.944C30.528 68.992 30.256 69.016 30.032 69.016C29.968 69.016 29.904 69.016 29.84 69.016C29.776 69.016 29.72 69.008 29.672 68.992C29.896 69.296 30.248 69.704 30.728 70.216C31.208 70.712 31.744 71.248 32.336 71.824C32.928 72.384 33.52 72.928 34.112 73.456C34.704 73.984 35.232 74.448 35.696 74.848C36.176 75.232 36.52 75.488 36.728 75.616C36.952 75.76 37.208 75.888 37.496 76C37.784 76.128 37.992 76.208 38.12 76.24C38.2 76.272 38.24 76.328 38.24 76.408C38.24 76.536 38.176 76.6 38.048 76.6C37.984 76.6 37.904 76.576 37.808 76.528C37.68 76.464 37.56 76.432 37.448 76.432C37.32 76.432 37.216 76.464 37.136 76.528C37.056 76.608 36.976 76.672 36.896 76.72C36.704 76.848 36.464 76.96 36.176 77.056C35.904 77.152 35.624 77.2 35.336 77.2ZM38.2419 66.184C38.0819 66.184 38.0019 66.144 38.0019 66.064C38.0019 65.952 38.1299 65.792 38.3859 65.584C38.7859 65.216 39.0499 64.84 39.1779 64.456C39.3219 64.056 39.4179 63.696 39.4659 63.376C39.5299 63.04 39.6419 62.816 39.8019 62.704C40.0259 62.528 40.2899 62.4 40.5939 62.32C40.9139 62.24 41.1939 62.2 41.4339 62.2C41.6099 62.2 41.7459 62.216 41.8419 62.248C41.9539 62.28 41.9939 62.32 41.9619 62.368C41.8179 62.704 41.6179 63.088 41.3619 63.52C41.1219 63.936 40.8419 64.344 40.5219 64.744C40.2019 65.128 39.8499 65.456 39.4659 65.728C39.0979 65.984 38.7139 66.136 38.3139 66.184H38.2419ZM49.9018 76.072C49.0218 76.072 48.1658 75.952 47.3338 75.712C46.5178 75.472 45.7898 75.088 45.1498 74.56C44.5098 74.032 44.0138 73.344 43.6618 72.496C43.3098 71.68 43.1738 70.816 43.2538 69.904C43.3338 68.816 43.6218 67.792 44.1178 66.832C44.6138 65.872 45.2538 65 46.0378 64.216C46.8378 63.432 47.7178 62.76 48.6778 62.2C49.6538 61.64 50.6538 61.208 51.6778 60.904C52.7178 60.6 53.7178 60.448 54.6778 60.448H54.7738C55.0618 60.448 55.3978 60.48 55.7818 60.544C56.1818 60.608 56.5338 60.736 56.8378 60.928C57.1418 61.12 57.2938 61.416 57.2938 61.816C57.2938 62.024 57.2458 62.24 57.1498 62.464C57.0378 62.704 56.9338 62.952 56.8378 63.208C56.7418 63.448 56.6458 63.696 56.5498 63.952L55.8298 65.848L55.5418 65.632C55.5418 65.632 55.5818 65.52 55.6618 65.296C55.7578 65.056 55.8458 64.784 55.9258 64.48C56.0218 64.176 56.0778 63.928 56.0938 63.736C56.1418 63.16 55.9978 62.752 55.6618 62.512C55.3418 62.256 54.9418 62.104 54.4618 62.056C53.9818 62.008 53.5258 61.984 53.0938 61.984C52.1818 61.984 51.2778 62.136 50.3818 62.44C49.4858 62.744 48.6618 63.176 47.9098 63.736C47.1738 64.296 46.5738 64.976 46.1098 65.776C45.6458 66.56 45.3738 67.448 45.2938 68.44C45.2778 68.552 45.2698 68.664 45.2698 68.776C45.2698 68.872 45.2698 68.968 45.2698 69.064C45.2698 70.648 45.7258 71.888 46.6378 72.784C47.5498 73.68 48.9578 74.128 50.8618 74.128C51.7578 74.128 52.7018 73.952 53.6938 73.6C54.7018 73.232 55.5498 72.736 56.2378 72.112C56.4138 71.952 56.5738 71.784 56.7178 71.608C56.8778 71.432 57.0378 71.256 57.1978 71.08L57.3898 71.392C57.3898 71.392 57.3018 71.488 57.1258 71.68C56.9498 71.856 56.7338 72.088 56.4778 72.376C56.2218 72.648 55.9658 72.928 55.7098 73.216C55.4698 73.504 55.2858 73.744 55.1578 73.936C54.8698 74.336 54.5738 74.696 54.2698 75.016C53.9658 75.336 53.5578 75.56 53.0458 75.688C52.5498 75.816 52.0298 75.912 51.4858 75.976C50.9418 76.04 50.4138 76.072 49.9018 76.072ZM60.0877 75.88C59.4797 75.88 58.8877 75.792 58.3117 75.616C57.7517 75.424 57.3597 75.096 57.1357 74.632C56.9757 74.296 56.8957 73.824 56.8957 73.216C56.8957 72.656 56.9517 72.056 57.0637 71.416C57.1757 70.776 57.3117 70.152 57.4717 69.544C57.6477 68.936 57.8077 68.432 57.9517 68.032C58.1597 67.472 58.4877 66.944 58.9357 66.448C59.3837 65.952 59.9757 65.56 60.7117 65.272C60.9837 65.16 61.3357 65.064 61.7677 64.984C62.2157 64.904 62.6717 64.864 63.1357 64.864C63.7597 64.864 64.3517 64.96 64.9117 65.152C65.4717 65.328 65.8717 65.656 66.1117 66.136C66.2717 66.456 66.3517 66.912 66.3517 67.504C66.3517 68.048 66.2877 68.648 66.1597 69.304C66.0477 69.96 65.9117 70.592 65.7517 71.2C65.5917 71.792 65.4317 72.296 65.2717 72.712C65.0637 73.256 64.7357 73.784 64.2877 74.296C63.8397 74.792 63.2477 75.184 62.5117 75.472C62.2397 75.584 61.8797 75.68 61.4317 75.76C60.9997 75.84 60.5517 75.88 60.0877 75.88ZM60.4477 75.328C60.8157 75.328 61.2637 75.208 61.7917 74.968C62.2557 74.744 62.6237 74.384 62.8957 73.888C63.1837 73.392 63.4077 72.848 63.5677 72.256C63.7277 71.664 63.8557 71.128 63.9517 70.648C64.0317 70.248 64.1037 69.808 64.1677 69.328C64.2317 68.848 64.2637 68.376 64.2637 67.912C64.2637 67.24 64.1597 66.664 63.9517 66.184C63.7437 65.688 63.3517 65.44 62.7757 65.44C62.4237 65.44 61.9837 65.56 61.4557 65.8C61.0077 66.008 60.6397 66.368 60.3517 66.88C60.0637 67.376 59.8397 67.92 59.6797 68.512C59.5197 69.088 59.3917 69.616 59.2957 70.096C59.2157 70.496 59.1357 70.944 59.0557 71.44C58.9917 71.92 58.9597 72.392 58.9597 72.856C58.9597 73.528 59.0637 74.112 59.2717 74.608C59.4797 75.088 59.8717 75.328 60.4477 75.328ZM63.548 80.752C63.548 80.704 63.548 80.656 63.548 80.608C63.548 80.56 63.556 80.512 63.572 80.464L64.7 80.344C65.148 80.296 65.572 79.952 65.972 79.312C66.372 78.688 66.748 77.864 67.1 76.84C67.452 75.832 67.78 74.728 68.084 73.528C68.388 72.312 68.668 71.104 68.924 69.904C69.18 68.688 69.404 67.584 69.596 66.592C69.244 66.576 68.884 66.568 68.516 66.568C68.148 66.568 67.884 66.56 67.724 66.544C67.228 66.512 66.812 66.544 66.476 66.64L66.38 66.376L68.06 65.776C68.188 65.744 68.42 65.72 68.756 65.704C69.108 65.672 69.452 65.648 69.788 65.632C69.868 65.264 69.932 64.928 69.98 64.624C70.044 64.304 70.108 64.032 70.172 63.808C70.412 63.104 70.612 62.52 70.772 62.056C70.932 61.576 71.164 61.184 71.468 60.88C71.772 60.56 72.252 60.288 72.908 60.064C72.988 60.032 73.132 59.984 73.34 59.92C73.548 59.84 73.772 59.76 74.012 59.68C74.252 59.584 74.46 59.504 74.636 59.44C74.812 59.376 74.9 59.344 74.9 59.344L74.996 59.656L74.348 59.848C73.9 59.976 73.532 60.24 73.244 60.64C72.956 61.024 72.716 61.472 72.524 61.984C72.348 62.496 72.18 63.024 72.02 63.568C71.924 63.92 71.828 64.272 71.732 64.624C71.636 64.96 71.548 65.304 71.468 65.656C71.66 65.672 71.86 65.68 72.068 65.68C72.276 65.68 72.484 65.68 72.692 65.68C73.204 65.68 73.716 65.656 74.228 65.608C74.74 65.56 75.204 65.464 75.62 65.32L75.764 65.488L73.532 66.448C73.228 66.512 72.86 66.56 72.428 66.592C72.012 66.608 71.612 66.624 71.228 66.64C70.94 67.824 70.668 69.008 70.412 70.192C70.156 71.376 69.884 72.584 69.596 73.816C69.196 75.576 68.676 77.048 68.036 78.232C67.412 79.432 66.492 80.24 65.276 80.656C65.084 80.688 64.82 80.712 64.484 80.728C64.132 80.76 63.82 80.768 63.548 80.752ZM76.604 63.16L76.34 62.896C76.436 62.512 76.484 62.176 76.484 61.888C76.484 61.376 76.356 60.984 76.1 60.712C75.86 60.44 75.524 60.304 75.092 60.304C74.708 60.304 74.26 60.424 73.748 60.664L73.628 60.472C74.156 60.168 74.612 59.944 74.996 59.8C75.396 59.656 75.78 59.56 76.148 59.512C76.516 59.448 76.924 59.408 77.372 59.392L77.468 59.464C77.5 59.656 77.476 59.92 77.396 60.256C77.316 60.592 77.212 60.936 77.084 61.288C77.02 61.464 76.956 61.64 76.892 61.816C76.844 61.976 76.796 62.136 76.748 62.296C76.652 62.6 76.604 62.888 76.604 63.16ZM62.996 81.256C62.388 81.256 61.86 81.2 61.412 81.088C60.964 80.976 60.476 80.816 59.948 80.608L59.9 80.488C59.964 80.28 60.124 80.032 60.38 79.744C60.636 79.456 60.908 79.168 61.196 78.88C61.356 78.736 61.508 78.592 61.652 78.448C61.796 78.304 61.932 78.168 62.06 78.04C62.188 77.912 62.3 77.784 62.396 77.656C62.476 77.544 62.548 77.416 62.612 77.272L62.732 77.632C62.108 78.32 61.796 78.952 61.796 79.528C61.796 79.96 61.996 80.304 62.396 80.56C62.78 80.832 63.348 80.96 64.1 80.944V81.208C63.892 81.224 63.7 81.232 63.524 81.232C63.348 81.248 63.172 81.256 62.996 81.256ZM70.844 80.752C70.844 80.704 70.844 80.656 70.844 80.608C70.844 80.56 70.852 80.512 70.868 80.464L71.996 80.344C72.444 80.296 72.868 79.952 73.268 79.312C73.668 78.688 74.044 77.864 74.396 76.84C74.748 75.832 75.076 74.728 75.38 73.528C75.684 72.312 75.964 71.104 76.22 69.904C76.476 68.688 76.7 67.584 76.892 66.592C76.54 66.576 76.18 66.568 75.812 66.568C75.444 66.568 75.18 66.56 75.02 66.544C74.524 66.512 74.108 66.544 73.772 66.64L73.676 66.376L75.356 65.776C75.484 65.744 75.716 65.72 76.052 65.704C76.404 65.672 76.748 65.648 77.084 65.632C77.164 65.264 77.228 64.928 77.276 64.624C77.34 64.304 77.404 64.032 77.468 63.808C77.708 63.104 77.908 62.52 78.068 62.056C78.228 61.576 78.46 61.184 78.764 60.88C79.068 60.56 79.548 60.288 80.204 60.064C80.284 60.032 80.428 59.984 80.636 59.92C80.844 59.84 81.068 59.76 81.308 59.68C81.548 59.584 81.756 59.504 81.932 59.44C82.108 59.376 82.196 59.344 82.196 59.344L82.292 59.656L81.644 59.848C81.196 59.976 80.828 60.24 80.54 60.64C80.252 61.024 80.012 61.472 79.82 61.984C79.644 62.496 79.476 63.024 79.316 63.568C79.22 63.92 79.124 64.272 79.028 64.624C78.932 64.96 78.844 65.304 78.764 65.656C78.956 65.672 79.156 65.68 79.364 65.68C79.572 65.68 79.78 65.68 79.988 65.68C80.5 65.68 81.012 65.656 81.524 65.608C82.036 65.56 82.5 65.464 82.916 65.32L83.06 65.488L80.828 66.448C80.524 66.512 80.156 66.56 79.724 66.592C79.308 66.608 78.908 66.624 78.524 66.64C78.236 67.824 77.964 69.008 77.708 70.192C77.452 71.376 77.18 72.584 76.892 73.816C76.492 75.576 75.972 77.048 75.332 78.232C74.708 79.432 73.788 80.24 72.572 80.656C72.38 80.688 72.108 80.712 71.756 80.728C71.42 80.76 71.116 80.768 70.844 80.752ZM83.9 63.16L83.636 62.896C83.732 62.512 83.78 62.176 83.78 61.888C83.78 61.376 83.652 60.984 83.396 60.712C83.156 60.44 82.82 60.304 82.388 60.304C82.004 60.304 81.556 60.424 81.044 60.664L80.924 60.472C81.452 60.168 81.908 59.944 82.292 59.8C82.692 59.656 83.076 59.56 83.444 59.512C83.812 59.448 84.22 59.408 84.668 59.392L84.764 59.464C84.796 59.656 84.772 59.92 84.692 60.256C84.612 60.592 84.508 60.936 84.38 61.288C84.316 61.464 84.252 61.64 84.188 61.816C84.14 61.976 84.092 62.136 84.044 62.296C83.948 62.6 83.9 62.888 83.9 63.16ZM70.292 81.256C69.684 81.256 69.156 81.2 68.708 81.088C68.26 80.976 67.772 80.816 67.244 80.608L67.196 80.488C67.26 80.28 67.42 80.032 67.676 79.744C67.932 79.456 68.204 79.168 68.492 78.88C68.652 78.736 68.804 78.592 68.948 78.448C69.092 78.304 69.228 78.168 69.356 78.04C69.484 77.912 69.588 77.784 69.668 77.656C69.764 77.544 69.844 77.416 69.908 77.272L70.028 77.632C69.404 78.32 69.092 78.952 69.092 79.528C69.092 79.96 69.284 80.304 69.668 80.56C70.068 80.832 70.644 80.96 71.396 80.944V81.208C71.188 81.224 70.996 81.232 70.82 81.232C70.644 81.248 70.468 81.256 70.292 81.256ZM89.2376 68.92L88.9496 68.728C88.9816 68.568 89.0056 68.424 89.0216 68.296C89.0536 68.152 89.0696 68.016 89.0696 67.888C89.0696 67.376 88.9176 66.984 88.6136 66.712C88.3256 66.44 87.9416 66.304 87.4616 66.304C87.0136 66.304 86.4936 66.44 85.9016 66.712L85.7816 66.52C86.5336 66.088 87.2296 65.752 87.8696 65.512C88.5256 65.272 89.1496 65.152 89.7416 65.152H89.8376C90.0136 65.152 90.1016 65.248 90.1016 65.44C90.1016 65.648 90.0616 65.896 89.9816 66.184C89.9016 66.456 89.8136 66.744 89.7176 67.048C89.6536 67.208 89.5976 67.368 89.5496 67.528C89.5016 67.672 89.4616 67.824 89.4296 67.984C89.3176 68.384 89.2536 68.696 89.2376 68.92ZM84.0056 76.024C83.5256 76.024 83.0776 75.952 82.6616 75.808C82.2456 75.664 81.9496 75.408 81.7736 75.04C81.6616 74.816 81.5816 74.56 81.5336 74.272C81.5016 73.968 81.4856 73.656 81.4856 73.336C81.4856 72.76 81.5416 72.152 81.6536 71.512C81.7816 70.856 81.9256 70.256 82.0856 69.712C82.4216 68.624 82.7976 67.792 83.2136 67.216C83.6296 66.64 84.1976 66.224 84.9176 65.968C85.0296 65.936 85.2056 65.872 85.4456 65.776C85.7016 65.68 85.9576 65.584 86.2136 65.488C86.4856 65.376 86.7016 65.296 86.8616 65.248L86.8856 65.536L85.4696 66.304C85.2616 66.416 85.0456 66.672 84.8216 67.072C84.5976 67.456 84.3896 67.92 84.1976 68.464C84.0056 69.008 83.8296 69.568 83.6696 70.144L85.1816 69.424C85.3736 69.376 85.5816 69.352 85.8056 69.352C86.0136 69.352 86.2136 69.368 86.4056 69.4C86.6136 69.432 86.8216 69.464 87.0296 69.496C87.3976 69.544 87.7736 69.568 88.1576 69.568C88.3176 69.568 88.4776 69.56 88.6376 69.544C88.8136 69.528 88.9816 69.504 89.1416 69.472L89.2376 69.64L87.0056 70.744C86.9096 70.76 86.8136 70.776 86.7176 70.792C86.6376 70.792 86.5496 70.792 86.4536 70.792C86.0696 70.792 85.6776 70.744 85.2776 70.648C84.8936 70.552 84.5096 70.504 84.1256 70.504C84.0296 70.504 83.9336 70.504 83.8376 70.504C83.7576 70.504 83.6696 70.52 83.5736 70.552C83.4936 70.936 83.4216 71.312 83.3576 71.68C83.3096 72.032 83.2856 72.368 83.2856 72.688C83.2856 73.184 83.3576 73.592 83.5016 73.912C83.7096 74.36 84.0136 74.712 84.4136 74.968C84.8136 75.208 85.2536 75.328 85.7336 75.328C86.4376 75.328 87.1336 75.04 87.8216 74.464C88.5096 73.888 89.0056 72.96 89.3096 71.68L89.6456 71.92C89.5016 72.32 89.3496 72.76 89.1896 73.24C89.0296 73.704 88.8856 74.272 88.7576 74.944C88.5976 75.2 88.3976 75.368 88.1576 75.448C87.9176 75.528 87.6456 75.568 87.3416 75.568C87.2296 75.568 87.1016 75.568 86.9576 75.568C86.8136 75.552 86.6696 75.544 86.5256 75.544C86.3016 75.656 85.9496 75.768 85.4696 75.88C85.0056 75.976 84.5176 76.024 84.0056 76.024Z" fill="black"/>
<defs>
<clipPath id="clip0_191_2">
<rect width="52" height="57.4517" fill="white" transform="translate(32 2)"/>
</clipPath>
</defs>
</svg>
