<svg width="130" height="45" viewBox="0 0 130 45" fill="none" xmlns="http://www.w3.org/2000/svg">
<g clip-path="url(#clip0_2_17)">
<path fill-rule="evenodd" clip-rule="evenodd" d="M28.8548 36.7184C28.3387 37.2791 27.7877 37.7961 27.1993 38.2555C26.6316 38.6418 23.9727 39.1327 19.8061 39.1168C15.5593 39.1009 13.1901 38.5792 12.6302 38.3014C12.0309 37.8395 11.4692 37.3175 10.9443 36.7506C7.33221 37.0415 5 37.4994 5 38.0153C5 38.389 6.74237 38.7616 9.16101 39.0723L9.09293 39.1005L10.328 39.612C10.3114 39.6297 10.3026 39.6482 10.3026 39.6674C10.3026 40.1065 14.6086 40.83 19.9264 40.83C25.2442 40.83 29.5611 40.1065 29.5611 39.6674C29.5611 39.6496 29.5523 39.6326 29.5382 39.6164L30.6508 39.1555C33.2639 38.8166 35.214 38.4009 35.214 38.0153C35.214 37.4799 32.7022 37.0071 28.8548 36.7184ZM22.3196 19.892C24.0482 18.9952 24.322 17.4687 24.3848 16.3936C24.6212 12.3388 19.9775 11.0756 22.3196 5.00015C22.3306 4.9723 17.7596 8.99668 20.1652 12.4463C23.3818 17.0592 22.2992 19.9029 22.3196 19.892ZM35.6282 25.6198C33.9736 25.0244 32.9894 26.6211 32.5657 24.5534C32.559 24.5212 32.529 24.5737 32.4835 24.6826C32.4892 24.6598 32.4962 24.6373 32.4962 24.6145C32.4962 23.5669 26.8641 22.7176 19.9169 22.7176C12.9696 22.7176 7.33786 23.5666 7.33786 24.6145C7.33786 24.6305 7.34315 24.6464 7.34562 24.6623C7.33715 24.6648 7.32798 24.6674 7.31951 24.6699C7.29835 25.0157 7.28741 25.3644 7.28741 25.7164C7.28741 30.8097 9.52755 35.2946 12.9244 37.9133C13.5072 38.2171 16.5408 38.6747 19.9267 38.6281C23.8634 38.5731 26.517 38.241 26.8662 37.8688C28.2022 36.8266 29.353 35.4911 30.2596 33.9464C31.9833 32.0719 36.5161 33.1589 37.3811 29.0821C37.3914 29.0314 37.8662 26.4251 35.6282 25.6198ZM32.4465 24.7737C32.4387 24.7943 32.4295 24.8178 32.4214 24.8406C32.4211 24.8341 32.4211 24.8276 32.4207 24.8211C32.4317 24.8055 32.4377 24.7896 32.4465 24.7737ZM19.8664 26.5115C13.5838 26.5115 8.49109 25.8264 8.49109 24.9817C8.49109 24.137 13.5841 23.4519 19.8664 23.4519C26.1487 23.4519 31.2417 24.137 31.2417 24.9817C31.2417 25.8264 26.149 26.5115 19.8664 26.5115ZM36.1771 29.5708C35.2228 31.3817 33.4695 31.1324 31.1214 32.2632C31.1116 32.2679 32.3346 28.2302 32.3579 28.1578C32.7724 26.8548 34.2989 26.3042 35.232 26.6219C37.0269 27.2328 36.2794 29.3765 36.1771 29.5708ZM18.4327 19.7737C19.5549 19.1855 19.7324 18.1846 19.7729 17.4795C19.9264 14.8204 16.9122 13.9923 18.4327 10.0085C18.4398 9.99003 15.4726 12.6289 17.034 14.8909C19.122 17.9158 18.4193 19.7806 18.4327 19.7737Z" fill="white"/>
</g>
<path d="M60.336 36.2C59.696 36.184 59.096 35.96 58.536 35.528C57.976 35.112 57.464 34.584 57 33.944C56.552 33.288 56.168 32.624 55.848 31.952C55.528 31.28 55.28 30.696 55.104 30.2C54.992 29.848 54.856 29.488 54.696 29.12C54.536 28.736 54.384 28.408 54.24 28.136C54.096 27.864 53.984 27.704 53.904 27.656C53.776 27.592 53.712 27.488 53.712 27.344C53.712 27.248 53.744 27.16 53.808 27.08C53.888 26.984 53.968 26.936 54.048 26.936C54.144 26.936 54.2 26.992 54.216 27.104C54.248 27.2 54.32 27.312 54.432 27.44C54.544 27.552 54.76 27.632 55.08 27.68C55.56 27.728 56.024 27.584 56.472 27.248C56.92 26.896 57.32 26.44 57.672 25.88C58.024 25.32 58.304 24.744 58.512 24.152C58.736 23.56 58.864 23.056 58.896 22.64C58.944 21.936 58.816 21.336 58.512 20.84C58.224 20.328 57.728 20.072 57.024 20.072C56.304 20.072 55.76 20.328 55.392 20.84C55.024 21.352 54.688 22 54.384 22.784C54.32 22.976 54.216 23.32 54.072 23.816C53.928 24.312 53.752 25.016 53.544 25.928C53.352 26.824 53.12 27.984 52.848 29.408C52.832 29.52 52.792 29.752 52.728 30.104C52.68 30.44 52.632 30.816 52.584 31.232C52.536 31.648 52.512 32.048 52.512 32.432C52.512 32.512 52.512 32.6 52.512 32.696C52.512 32.776 52.52 32.856 52.536 32.936C52.568 33.288 52.688 33.592 52.896 33.848C53.12 34.088 53.408 34.224 53.76 34.256C54.08 34.304 54.48 34.328 54.96 34.328C55.168 34.328 55.36 34.328 55.536 34.328C55.728 34.312 55.904 34.296 56.064 34.28C56.112 34.28 56.136 34.304 56.136 34.352C56.136 34.416 56.088 34.504 55.992 34.616C55.912 34.712 55.824 34.752 55.728 34.736C54.448 34.704 53.416 34.68 52.632 34.664C51.864 34.648 51.24 34.64 50.76 34.64C50.296 34.624 49.888 34.616 49.536 34.616C49.296 34.616 48.944 34.624 48.48 34.64C48.016 34.656 47.504 34.672 46.944 34.688C46.384 34.688 45.848 34.688 45.336 34.688H45.312C45.264 34.688 45.24 34.664 45.24 34.616C45.24 34.552 45.28 34.48 45.36 34.4C45.456 34.304 45.536 34.264 45.6 34.28C45.984 34.28 46.328 34.288 46.632 34.304C46.936 34.304 47.2 34.304 47.424 34.304C48 34.304 48.424 34.248 48.696 34.136C48.968 34.008 49.184 33.752 49.344 33.368C49.504 32.984 49.696 32.392 49.92 31.592C50.416 29.848 50.824 28.176 51.144 26.576C51.464 24.96 51.776 23.28 52.08 21.536C52.128 21.216 52.064 20.944 51.888 20.72C51.728 20.48 51.544 20.344 51.336 20.312C51.176 20.28 50.904 20.256 50.52 20.24C50.152 20.224 49.784 20.216 49.416 20.216C49.048 20.2 48.808 20.2 48.696 20.216C48.616 20.216 48.576 20.184 48.576 20.12C48.576 20.056 48.616 19.992 48.696 19.928C48.776 19.848 48.856 19.808 48.936 19.808C49.592 19.808 50.36 19.824 51.24 19.856C52.12 19.888 52.936 19.904 53.688 19.904H54.12C54.584 19.904 55.192 19.832 55.944 19.688C56.696 19.544 57.432 19.472 58.152 19.472C58.792 19.472 59.376 19.576 59.904 19.784C60.432 19.992 60.856 20.304 61.176 20.72C61.512 21.12 61.68 21.64 61.68 22.28C61.68 22.408 61.672 22.544 61.656 22.688C61.64 22.832 61.616 22.984 61.584 23.144C61.456 23.784 61.16 24.408 60.696 25.016C60.232 25.608 59.672 26.136 59.016 26.6C58.376 27.048 57.704 27.392 57 27.632C56.552 27.776 56.168 27.88 55.848 27.944C55.528 27.992 55.256 28.016 55.032 28.016C54.968 28.016 54.904 28.016 54.84 28.016C54.776 28.016 54.72 28.008 54.672 27.992C54.896 28.296 55.248 28.704 55.728 29.216C56.208 29.712 56.744 30.248 57.336 30.824C57.928 31.384 58.52 31.928 59.112 32.456C59.704 32.984 60.232 33.448 60.696 33.848C61.176 34.232 61.52 34.488 61.728 34.616C61.952 34.76 62.208 34.888 62.496 35C62.784 35.128 62.992 35.208 63.12 35.24C63.2 35.272 63.24 35.328 63.24 35.408C63.24 35.536 63.176 35.6 63.048 35.6C62.984 35.6 62.904 35.576 62.808 35.528C62.68 35.464 62.56 35.432 62.448 35.432C62.32 35.432 62.216 35.464 62.136 35.528C62.056 35.608 61.976 35.672 61.896 35.72C61.704 35.848 61.464 35.96 61.176 36.056C60.904 36.152 60.624 36.2 60.336 36.2ZM63.2419 25.184C63.0819 25.184 63.0019 25.144 63.0019 25.064C63.0019 24.952 63.1299 24.792 63.3859 24.584C63.7859 24.216 64.0499 23.84 64.1779 23.456C64.3219 23.056 64.4179 22.696 64.4659 22.376C64.5299 22.04 64.6419 21.816 64.8019 21.704C65.0259 21.528 65.2899 21.4 65.5939 21.32C65.9139 21.24 66.1939 21.2 66.4339 21.2C66.6099 21.2 66.7459 21.216 66.8419 21.248C66.9539 21.28 66.9939 21.32 66.9619 21.368C66.8179 21.704 66.6179 22.088 66.3619 22.52C66.1219 22.936 65.8419 23.344 65.5219 23.744C65.2019 24.128 64.8499 24.456 64.4659 24.728C64.0979 24.984 63.7139 25.136 63.3139 25.184H63.2419ZM74.9018 35.072C74.0218 35.072 73.1658 34.952 72.3338 34.712C71.5178 34.472 70.7898 34.088 70.1498 33.56C69.5098 33.032 69.0138 32.344 68.6618 31.496C68.3098 30.68 68.1738 29.816 68.2538 28.904C68.3338 27.816 68.6218 26.792 69.1178 25.832C69.6138 24.872 70.2538 24 71.0378 23.216C71.8378 22.432 72.7178 21.76 73.6778 21.2C74.6538 20.64 75.6538 20.208 76.6778 19.904C77.7178 19.6 78.7178 19.448 79.6778 19.448H79.7738C80.0618 19.448 80.3978 19.48 80.7818 19.544C81.1818 19.608 81.5338 19.736 81.8378 19.928C82.1418 20.12 82.2938 20.416 82.2938 20.816C82.2938 21.024 82.2458 21.24 82.1498 21.464C82.0378 21.704 81.9338 21.952 81.8378 22.208C81.7418 22.448 81.6458 22.696 81.5498 22.952L80.8298 24.848L80.5418 24.632C80.5418 24.632 80.5818 24.52 80.6618 24.296C80.7578 24.056 80.8458 23.784 80.9258 23.48C81.0218 23.176 81.0778 22.928 81.0938 22.736C81.1418 22.16 80.9978 21.752 80.6618 21.512C80.3418 21.256 79.9418 21.104 79.4618 21.056C78.9818 21.008 78.5258 20.984 78.0938 20.984C77.1818 20.984 76.2778 21.136 75.3818 21.44C74.4858 21.744 73.6618 22.176 72.9098 22.736C72.1738 23.296 71.5738 23.976 71.1098 24.776C70.6458 25.56 70.3738 26.448 70.2938 27.44C70.2778 27.552 70.2698 27.664 70.2698 27.776C70.2698 27.872 70.2698 27.968 70.2698 28.064C70.2698 29.648 70.7258 30.888 71.6378 31.784C72.5498 32.68 73.9578 33.128 75.8618 33.128C76.7578 33.128 77.7018 32.952 78.6938 32.6C79.7018 32.232 80.5498 31.736 81.2378 31.112C81.4138 30.952 81.5738 30.784 81.7178 30.608C81.8778 30.432 82.0378 30.256 82.1978 30.08L82.3898 30.392C82.3898 30.392 82.3018 30.488 82.1258 30.68C81.9498 30.856 81.7338 31.088 81.4778 31.376C81.2218 31.648 80.9658 31.928 80.7098 32.216C80.4698 32.504 80.2858 32.744 80.1578 32.936C79.8698 33.336 79.5738 33.696 79.2698 34.016C78.9658 34.336 78.5578 34.56 78.0458 34.688C77.5498 34.816 77.0298 34.912 76.4858 34.976C75.9418 35.04 75.4138 35.072 74.9018 35.072ZM85.0877 34.88C84.4797 34.88 83.8877 34.792 83.3117 34.616C82.7517 34.424 82.3597 34.096 82.1357 33.632C81.9757 33.296 81.8957 32.824 81.8957 32.216C81.8957 31.656 81.9517 31.056 82.0637 30.416C82.1757 29.776 82.3117 29.152 82.4717 28.544C82.6477 27.936 82.8077 27.432 82.9517 27.032C83.1597 26.472 83.4877 25.944 83.9357 25.448C84.3837 24.952 84.9757 24.56 85.7117 24.272C85.9837 24.16 86.3357 24.064 86.7677 23.984C87.2157 23.904 87.6717 23.864 88.1357 23.864C88.7597 23.864 89.3517 23.96 89.9117 24.152C90.4717 24.328 90.8717 24.656 91.1117 25.136C91.2717 25.456 91.3517 25.912 91.3517 26.504C91.3517 27.048 91.2877 27.648 91.1597 28.304C91.0477 28.96 90.9117 29.592 90.7517 30.2C90.5917 30.792 90.4317 31.296 90.2717 31.712C90.0637 32.256 89.7357 32.784 89.2877 33.296C88.8397 33.792 88.2477 34.184 87.5117 34.472C87.2397 34.584 86.8797 34.68 86.4317 34.76C85.9997 34.84 85.5517 34.88 85.0877 34.88ZM85.4477 34.328C85.8157 34.328 86.2637 34.208 86.7917 33.968C87.2557 33.744 87.6237 33.384 87.8957 32.888C88.1837 32.392 88.4077 31.848 88.5677 31.256C88.7277 30.664 88.8557 30.128 88.9517 29.648C89.0317 29.248 89.1037 28.808 89.1677 28.328C89.2317 27.848 89.2637 27.376 89.2637 26.912C89.2637 26.24 89.1597 25.664 88.9517 25.184C88.7437 24.688 88.3517 24.44 87.7757 24.44C87.4237 24.44 86.9837 24.56 86.4557 24.8C86.0077 25.008 85.6397 25.368 85.3517 25.88C85.0637 26.376 84.8397 26.92 84.6797 27.512C84.5197 28.088 84.3917 28.616 84.2957 29.096C84.2157 29.496 84.1357 29.944 84.0557 30.44C83.9917 30.92 83.9597 31.392 83.9597 31.856C83.9597 32.528 84.0637 33.112 84.2717 33.608C84.4797 34.088 84.8717 34.328 85.4477 34.328ZM88.548 39.752C88.548 39.704 88.548 39.656 88.548 39.608C88.548 39.56 88.556 39.512 88.572 39.464L89.7 39.344C90.148 39.296 90.572 38.952 90.972 38.312C91.372 37.688 91.748 36.864 92.1 35.84C92.452 34.832 92.78 33.728 93.084 32.528C93.388 31.312 93.668 30.104 93.924 28.904C94.18 27.688 94.404 26.584 94.596 25.592C94.244 25.576 93.884 25.568 93.516 25.568C93.148 25.568 92.884 25.56 92.724 25.544C92.228 25.512 91.812 25.544 91.476 25.64L91.38 25.376L93.06 24.776C93.188 24.744 93.42 24.72 93.756 24.704C94.108 24.672 94.452 24.648 94.788 24.632C94.868 24.264 94.932 23.928 94.98 23.624C95.044 23.304 95.108 23.032 95.172 22.808C95.412 22.104 95.612 21.52 95.772 21.056C95.932 20.576 96.164 20.184 96.468 19.88C96.772 19.56 97.252 19.288 97.908 19.064C97.988 19.032 98.132 18.984 98.34 18.92C98.548 18.84 98.772 18.76 99.012 18.68C99.252 18.584 99.46 18.504 99.636 18.44C99.812 18.376 99.9 18.344 99.9 18.344L99.996 18.656L99.348 18.848C98.9 18.976 98.532 19.24 98.244 19.64C97.956 20.024 97.716 20.472 97.524 20.984C97.348 21.496 97.18 22.024 97.02 22.568C96.924 22.92 96.828 23.272 96.732 23.624C96.636 23.96 96.548 24.304 96.468 24.656C96.66 24.672 96.86 24.68 97.068 24.68C97.276 24.68 97.484 24.68 97.692 24.68C98.204 24.68 98.716 24.656 99.228 24.608C99.74 24.56 100.204 24.464 100.62 24.32L100.764 24.488L98.532 25.448C98.228 25.512 97.86 25.56 97.428 25.592C97.012 25.608 96.612 25.624 96.228 25.64C95.94 26.824 95.668 28.008 95.412 29.192C95.156 30.376 94.884 31.584 94.596 32.816C94.196 34.576 93.676 36.048 93.036 37.232C92.412 38.432 91.492 39.24 90.276 39.656C90.084 39.688 89.82 39.712 89.484 39.728C89.132 39.76 88.82 39.768 88.548 39.752ZM101.604 22.16L101.34 21.896C101.436 21.512 101.484 21.176 101.484 20.888C101.484 20.376 101.356 19.984 101.1 19.712C100.86 19.44 100.524 19.304 100.092 19.304C99.708 19.304 99.26 19.424 98.748 19.664L98.628 19.472C99.156 19.168 99.612 18.944 99.996 18.8C100.396 18.656 100.78 18.56 101.148 18.512C101.516 18.448 101.924 18.408 102.372 18.392L102.468 18.464C102.5 18.656 102.476 18.92 102.396 19.256C102.316 19.592 102.212 19.936 102.084 20.288C102.02 20.464 101.956 20.64 101.892 20.816C101.844 20.976 101.796 21.136 101.748 21.296C101.652 21.6 101.604 21.888 101.604 22.16ZM87.996 40.256C87.388 40.256 86.86 40.2 86.412 40.088C85.964 39.976 85.476 39.816 84.948 39.608L84.9 39.488C84.964 39.28 85.124 39.032 85.38 38.744C85.636 38.456 85.908 38.168 86.196 37.88C86.356 37.736 86.508 37.592 86.652 37.448C86.796 37.304 86.932 37.168 87.06 37.04C87.188 36.912 87.3 36.784 87.396 36.656C87.476 36.544 87.548 36.416 87.612 36.272L87.732 36.632C87.108 37.32 86.796 37.952 86.796 38.528C86.796 38.96 86.996 39.304 87.396 39.56C87.78 39.832 88.348 39.96 89.1 39.944V40.208C88.892 40.224 88.7 40.232 88.524 40.232C88.348 40.248 88.172 40.256 87.996 40.256ZM95.844 39.752C95.844 39.704 95.844 39.656 95.844 39.608C95.844 39.56 95.852 39.512 95.868 39.464L96.996 39.344C97.444 39.296 97.868 38.952 98.268 38.312C98.668 37.688 99.044 36.864 99.396 35.84C99.748 34.832 100.076 33.728 100.38 32.528C100.684 31.312 100.964 30.104 101.22 28.904C101.476 27.688 101.7 26.584 101.892 25.592C101.54 25.576 101.18 25.568 100.812 25.568C100.444 25.568 100.18 25.56 100.02 25.544C99.524 25.512 99.108 25.544 98.772 25.64L98.676 25.376L100.356 24.776C100.484 24.744 100.716 24.72 101.052 24.704C101.404 24.672 101.748 24.648 102.084 24.632C102.164 24.264 102.228 23.928 102.276 23.624C102.34 23.304 102.404 23.032 102.468 22.808C102.708 22.104 102.908 21.52 103.068 21.056C103.228 20.576 103.46 20.184 103.764 19.88C104.068 19.56 104.548 19.288 105.204 19.064C105.284 19.032 105.428 18.984 105.636 18.92C105.844 18.84 106.068 18.76 106.308 18.68C106.548 18.584 106.756 18.504 106.932 18.44C107.108 18.376 107.196 18.344 107.196 18.344L107.292 18.656L106.644 18.848C106.196 18.976 105.828 19.24 105.54 19.64C105.252 20.024 105.012 20.472 104.82 20.984C104.644 21.496 104.476 22.024 104.316 22.568C104.22 22.92 104.124 23.272 104.028 23.624C103.932 23.96 103.844 24.304 103.764 24.656C103.956 24.672 104.156 24.68 104.364 24.68C104.572 24.68 104.78 24.68 104.988 24.68C105.5 24.68 106.012 24.656 106.524 24.608C107.036 24.56 107.5 24.464 107.916 24.32L108.06 24.488L105.828 25.448C105.524 25.512 105.156 25.56 104.724 25.592C104.308 25.608 103.908 25.624 103.524 25.64C103.236 26.824 102.964 28.008 102.708 29.192C102.452 30.376 102.18 31.584 101.892 32.816C101.492 34.576 100.972 36.048 100.332 37.232C99.708 38.432 98.788 39.24 97.572 39.656C97.38 39.688 97.108 39.712 96.756 39.728C96.42 39.76 96.116 39.768 95.844 39.752ZM108.9 22.16L108.636 21.896C108.732 21.512 108.78 21.176 108.78 20.888C108.78 20.376 108.652 19.984 108.396 19.712C108.156 19.44 107.82 19.304 107.388 19.304C107.004 19.304 106.556 19.424 106.044 19.664L105.924 19.472C106.452 19.168 106.908 18.944 107.292 18.8C107.692 18.656 108.076 18.56 108.444 18.512C108.812 18.448 109.22 18.408 109.668 18.392L109.764 18.464C109.796 18.656 109.772 18.92 109.692 19.256C109.612 19.592 109.508 19.936 109.38 20.288C109.316 20.464 109.252 20.64 109.188 20.816C109.14 20.976 109.092 21.136 109.044 21.296C108.948 21.6 108.9 21.888 108.9 22.16ZM95.292 40.256C94.684 40.256 94.156 40.2 93.708 40.088C93.26 39.976 92.772 39.816 92.244 39.608L92.196 39.488C92.26 39.28 92.42 39.032 92.676 38.744C92.932 38.456 93.204 38.168 93.492 37.88C93.652 37.736 93.804 37.592 93.948 37.448C94.092 37.304 94.228 37.168 94.356 37.04C94.484 36.912 94.588 36.784 94.668 36.656C94.764 36.544 94.844 36.416 94.908 36.272L95.028 36.632C94.404 37.32 94.092 37.952 94.092 38.528C94.092 38.96 94.284 39.304 94.668 39.56C95.068 39.832 95.644 39.96 96.396 39.944V40.208C96.188 40.224 95.996 40.232 95.82 40.232C95.644 40.248 95.468 40.256 95.292 40.256ZM114.238 27.92L113.95 27.728C113.982 27.568 114.006 27.424 114.022 27.296C114.054 27.152 114.07 27.016 114.07 26.888C114.07 26.376 113.918 25.984 113.614 25.712C113.326 25.44 112.942 25.304 112.462 25.304C112.014 25.304 111.494 25.44 110.902 25.712L110.782 25.52C111.534 25.088 112.23 24.752 112.87 24.512C113.526 24.272 114.15 24.152 114.742 24.152H114.838C115.014 24.152 115.102 24.248 115.102 24.44C115.102 24.648 115.062 24.896 114.982 25.184C114.902 25.456 114.814 25.744 114.718 26.048C114.654 26.208 114.598 26.368 114.55 26.528C114.502 26.672 114.462 26.824 114.43 26.984C114.318 27.384 114.254 27.696 114.238 27.92ZM109.006 35.024C108.526 35.024 108.078 34.952 107.662 34.808C107.246 34.664 106.95 34.408 106.774 34.04C106.662 33.816 106.582 33.56 106.534 33.272C106.502 32.968 106.486 32.656 106.486 32.336C106.486 31.76 106.542 31.152 106.654 30.512C106.782 29.856 106.926 29.256 107.086 28.712C107.422 27.624 107.798 26.792 108.214 26.216C108.63 25.64 109.198 25.224 109.918 24.968C110.03 24.936 110.206 24.872 110.446 24.776C110.702 24.68 110.958 24.584 111.214 24.488C111.486 24.376 111.702 24.296 111.862 24.248L111.886 24.536L110.47 25.304C110.262 25.416 110.046 25.672 109.822 26.072C109.598 26.456 109.39 26.92 109.198 27.464C109.006 28.008 108.83 28.568 108.67 29.144L110.182 28.424C110.374 28.376 110.582 28.352 110.806 28.352C111.014 28.352 111.214 28.368 111.406 28.4C111.614 28.432 111.822 28.464 112.03 28.496C112.398 28.544 112.774 28.568 113.158 28.568C113.318 28.568 113.478 28.56 113.638 28.544C113.814 28.528 113.982 28.504 114.142 28.472L114.238 28.64L112.006 29.744C111.91 29.76 111.814 29.776 111.718 29.792C111.638 29.792 111.55 29.792 111.454 29.792C111.07 29.792 110.678 29.744 110.278 29.648C109.894 29.552 109.51 29.504 109.126 29.504C109.03 29.504 108.934 29.504 108.838 29.504C108.758 29.504 108.67 29.52 108.574 29.552C108.494 29.936 108.422 30.312 108.358 30.68C108.31 31.032 108.286 31.368 108.286 31.688C108.286 32.184 108.358 32.592 108.502 32.912C108.71 33.36 109.014 33.712 109.414 33.968C109.814 34.208 110.254 34.328 110.734 34.328C111.438 34.328 112.134 34.04 112.822 33.464C113.51 32.888 114.006 31.96 114.31 30.68L114.646 30.92C114.502 31.32 114.35 31.76 114.19 32.24C114.03 32.704 113.886 33.272 113.758 33.944C113.598 34.2 113.398 34.368 113.158 34.448C112.918 34.528 112.646 34.568 112.342 34.568C112.23 34.568 112.102 34.568 111.958 34.568C111.814 34.552 111.67 34.544 111.526 34.544C111.302 34.656 110.95 34.768 110.47 34.88C110.006 34.976 109.518 35.024 109.006 35.024Z" fill="white"/>
<defs>
<clipPath id="clip0_2_17">
<rect width="32.43" height="35.83" fill="white" transform="translate(5 5)"/>
</clipPath>
</defs>
</svg>
